<svg width="198" height="49" viewBox="0 0 198 49" fill="none" xmlns="http://www.w3.org/2000/svg">
<path fill-rule="evenodd" clip-rule="evenodd" d="M38.271 29.8044L34.964 19.8728H34.126V19.3295C35.765 18.9403 35.793 17.3834 35.793 17.3834C35.793 17.3834 35.172 18.0857 34.126 18.3584V17.9287H33.472V18.4634C33.4587 18.4639 33.4458 18.4658 33.4328 18.4677C33.4196 18.4696 33.4062 18.4716 33.392 18.4721C32.6855 18.4885 32.1629 17.9618 31.6088 17.4032C30.9943 16.7838 30.341 16.1252 29.355 16.1252C28.3201 16.1252 27.2136 16.4769 26.2213 16.7922C25.5395 17.0089 24.9116 17.2084 24.398 17.2649V14.5549C25.29 14.421 25.972 13.6869 25.972 12.7909C25.974 11.8025 25.14 11 24.113 11C23.087 11 22.254 11.8025 22.254 12.7909C22.254 13.7351 23.016 14.501 23.979 14.5703V17.2447C23.4942 17.171 22.9192 16.9885 22.2994 16.7917C21.307 16.4767 20.1996 16.1252 19.163 16.1252C18.1772 16.1252 17.5245 16.7836 16.9104 17.4029C16.3565 17.9616 15.8341 18.4885 15.127 18.4721C15.0317 18.469 14.9426 18.457 14.8533 18.445C14.8381 18.4429 14.8228 18.4409 14.8075 18.4389C14.7987 18.4377 14.7898 18.4366 14.781 18.4355V17.9287H14.127V18.2881C13.24 17.9778 12.727 17.3844 12.727 17.3844C12.727 17.3844 12.755 18.763 14.127 19.2476V19.8728H13.29L9.925 29.8054H8C8 29.8054 9.381 32.3478 14.327 32.3478C19.273 32.3478 20.654 29.8054 20.654 29.8054H18.925L15.62 19.8738H14.781V19.396C14.913 19.4094 15.051 19.4171 15.2 19.4171C16.598 19.4171 17.3135 18.9273 17.9236 18.5097C18.377 18.1993 18.7722 17.9287 19.346 17.9287C19.9508 17.9287 20.6074 18.2901 21.3311 18.6884C22.0566 19.0876 22.8495 19.5239 23.725 19.6705C23.7604 19.6801 23.8608 19.6797 23.9454 19.6795C24.0401 19.6792 24.1151 19.6789 24.057 19.6927L24 25.2582L22.889 27.4258L22.927 33.9557H19.873V35.1108L17.418 39H31.381L28.381 35.0578V33.9538H25.709V27.4836L24.584 25.2062L24.583 19.6792C24.6175 19.6789 24.6398 19.6811 24.6587 19.683C24.6953 19.6867 24.7196 19.6892 24.796 19.6696C25.6715 19.5229 26.4644 19.0866 27.1898 18.6874C27.9136 18.2891 28.5702 17.9277 29.175 17.9277C29.7494 17.9277 30.1447 18.1984 30.5981 18.5089C31.208 18.9265 31.9232 19.4162 33.321 19.4162C33.3552 19.4162 33.3856 19.414 33.4156 19.4119C33.4346 19.4106 33.4536 19.4092 33.473 19.4085V19.8709H32.637L29.272 29.8025H27.346C27.346 29.8025 28.727 32.3449 33.673 32.3449C38.619 32.3449 40 29.8044 40 29.8044H38.271ZM14.127 29.8044H10.614L13.764 20.5048H14.127V29.8044ZM15.143 20.5039L18.239 29.8025H14.781V20.5039H15.143ZM33.472 29.8044H29.959L33.109 20.5048H33.472V29.8044ZM34.127 29.8044V20.5039H34.488L37.584 29.8025L34.127 29.8044Z" fill="black"/>
<path fill-rule="evenodd" clip-rule="evenodd" d="M25.7895 2.02883C25.683 2.46576 25.6297 2.97819 25.6297 3.56612C25.6297 4.32753 25.7188 4.96365 25.897 5.47447C26.0753 5.98529 26.3204 6.37242 26.6323 6.63587C26.9461 6.8961 27.321 7.02621 27.7569 7.02621C28.1599 7.02621 28.5183 6.91859 28.8322 6.70334C29.0608 6.5427 29.2642 6.31299 29.4424 6.01421C29.6226 5.71542 29.7592 5.37327 29.8522 4.98774C29.9781 4.4705 30.0411 3.90988 30.0411 3.30589C30.0411 2.94927 30.0188 2.62318 29.9743 2.32761C29.9316 2.03204 29.8677 1.76057 29.7825 1.51319C29.6972 1.26581 29.5722 1.02486 29.4076 0.790328C29.2448 0.552587 29.0569 0.371069 28.8438 0.245773C28.5571 0.0819243 28.2374 0 27.8848 0C27.5302 0 27.2028 0.085137 26.9025 0.255411C26.6681 0.390345 26.4511 0.610416 26.2516 0.915624C26.052 1.22083 25.898 1.5919 25.7895 2.02883ZM26.7107 5.14195C26.5867 4.65041 26.5247 4.03035 26.5247 3.28179C26.5247 2.76133 26.5693 2.28585 26.6584 1.85534C26.7495 1.42484 26.8938 1.10036 27.0914 0.881891C27.291 0.660213 27.5322 0.549375 27.815 0.549375C28.063 0.549375 28.2616 0.618448 28.4108 0.756595C28.5619 0.894742 28.6927 1.09554 28.8031 1.35898C28.9135 1.61921 28.9978 1.93566 29.0559 2.30834C29.116 2.68101 29.146 3.09224 29.146 3.54202C29.146 4.19742 29.0908 4.75482 28.9804 5.21424C28.8719 5.67366 28.7208 5.99975 28.527 6.19251C28.3352 6.38528 28.1173 6.48166 27.8732 6.48166C27.6097 6.48166 27.3811 6.38046 27.1873 6.17806C26.9936 5.97565 26.8347 5.63029 26.7107 5.14195ZM19.864 4.51547H19.6315C19.6257 4.11388 19.6093 3.87132 19.5821 3.78779C19.5686 3.74603 19.5337 3.71551 19.4775 3.69623C19.3342 3.65447 19.1075 3.63358 18.7975 3.63358C18.7529 3.63358 18.6754 3.63519 18.565 3.6384V4.17332C18.565 4.93473 18.5699 5.46965 18.5795 5.77807C18.5912 6.08328 18.6067 6.26159 18.626 6.31299C18.6396 6.34833 18.6638 6.37724 18.6987 6.39973C18.7336 6.41901 18.8857 6.44471 19.155 6.47684V6.85754L18.0158 6.82381C17.8511 6.82381 17.5905 6.83506 17.234 6.85754V6.45756C17.4568 6.45114 17.5857 6.43668 17.6205 6.41419C17.638 6.40455 17.6525 6.38688 17.6641 6.36118C17.6816 6.32263 17.6951 6.2391 17.7048 6.11059C17.7106 6.0367 17.7184 5.80538 17.7281 5.41664C17.7378 5.02469 17.7426 4.74358 17.7426 4.5733V2.57821C17.7426 2.53323 17.7339 2.08345 17.7164 1.22886C17.7126 0.981485 17.7019 0.806392 17.6845 0.703585C17.6787 0.668245 17.669 0.642544 17.6554 0.62648C17.6438 0.607204 17.6167 0.589534 17.574 0.57347C17.5334 0.557406 17.42 0.539737 17.234 0.52046V0.115658L18.2657 0.144572L19.6635 0.10602C19.8592 0.10602 20.0442 0.122083 20.2186 0.15421L20.2447 0.221677C20.2234 0.404802 20.205 0.637724 20.1895 0.920444C20.174 1.20316 20.1653 1.45054 20.1634 1.66258H19.9251C19.9251 1.58548 19.9202 1.41199 19.9105 1.14212C19.9067 1.00076 19.9008 0.915624 19.8931 0.88671C19.8873 0.864221 19.8786 0.848157 19.8669 0.838519C19.8321 0.799967 19.7507 0.76302 19.6228 0.72768C19.4969 0.689128 19.3487 0.669852 19.1782 0.669852C19.1453 0.669852 19.0532 0.674671 18.9021 0.684309C18.7529 0.693947 18.6512 0.701979 18.597 0.708404C18.5757 1.02968 18.565 1.60957 18.565 2.44809V3.12276C18.813 3.13561 18.9806 3.14204 19.0678 3.14204C19.3196 3.14204 19.4785 3.12276 19.5444 3.08421C19.5695 3.07136 19.588 3.03441 19.5996 2.97337C19.617 2.89305 19.6277 2.70993 19.6315 2.424H19.8844C19.8708 2.97016 19.864 3.66732 19.864 4.51547ZM20.7388 6.85754V6.62623C20.7543 6.61017 20.7814 6.58446 20.8201 6.54912C20.8937 6.48166 20.9616 6.41098 21.0236 6.33708C21.0449 5.90658 21.0555 5.20782 21.0555 4.24079V3.45046C21.0555 3.02638 21.0507 2.40472 21.041 1.58548C21.0352 1.13248 21.0226 0.843338 21.0032 0.718042C20.9974 0.689128 20.9897 0.666639 20.98 0.650575C20.9645 0.624874 20.9402 0.605597 20.9073 0.592746C20.8744 0.579896 20.7523 0.550981 20.5411 0.506003V0.115658L21.596 0.144572C21.72 0.144572 21.9535 0.13654 22.2964 0.120477C22.5444 0.110839 22.743 0.10602 22.8922 0.10602C23.2351 0.10602 23.5092 0.14136 23.7146 0.212039C23.9219 0.279506 24.1021 0.390345 24.2551 0.544556C24.4082 0.695553 24.537 0.875466 24.6416 1.08429C24.7482 1.29312 24.8286 1.51801 24.8828 1.75896C24.9739 2.16377 25.0194 2.60712 25.0194 3.08903C25.0194 3.70266 24.9516 4.25043 24.816 4.73233C24.6804 5.21424 24.4934 5.61744 24.2551 5.94192C24.0187 6.26641 23.762 6.50093 23.485 6.64551C23.208 6.78687 22.8738 6.85754 22.4824 6.85754L21.6193 6.82863L20.7388 6.85754ZM21.9012 6.26962C22.0814 6.3146 22.2538 6.33708 22.4185 6.33708C22.6761 6.33708 22.9048 6.29211 23.1043 6.20215C23.2515 6.13468 23.3804 6.0367 23.4908 5.90819C23.6012 5.77968 23.7068 5.59013 23.8076 5.33954C23.9103 5.08894 23.9897 4.79016 24.0459 4.44319C24.1021 4.09621 24.1301 3.72193 24.1301 3.32034C24.1301 2.95409 24.1021 2.6007 24.0459 2.26015C23.9897 1.91639 23.8977 1.616 23.7698 1.35898C23.6419 1.10196 23.4802 0.915624 23.2845 0.799967C23.0888 0.684309 22.7924 0.62648 22.3952 0.62648C22.246 0.62648 22.0814 0.647363 21.9012 0.689128C21.8818 1.14533 21.8721 2.00474 21.8721 3.26733V4.37572C21.8721 5.33311 21.8818 5.96441 21.9012 6.26962ZM15.917 2.66359C6.63839 6.00545 0 14.9376 0 25.4302C0 35.8956 6.60414 44.8088 15.8452 48.1708V47.6277C6.89124 44.2891 0.508203 35.6111 0.508203 25.4302C0.508203 15.2221 6.9254 6.52486 15.917 3.206V2.66359ZM48 25.4302C48 35.9228 41.3616 44.8549 32.0829 48.1968V47.6544C41.0746 44.3355 47.4918 35.6383 47.4918 25.4302C47.4918 15.2221 41.0746 6.52484 32.0829 3.20599V2.66357C41.3616 6.00542 48 14.9376 48 25.4302ZM18.1857 47.4569C18.1472 47.4031 18.0977 47.3603 18.0374 47.3283C17.977 47.2947 17.9041 47.2779 17.8186 47.2779C17.775 47.2779 17.7306 47.2846 17.6853 47.2981C17.64 47.3115 17.599 47.3325 17.5621 47.3611C17.5252 47.388 17.495 47.4225 17.4715 47.4645C17.4498 47.5065 17.4389 47.5561 17.4389 47.6133C17.4389 47.6704 17.4498 47.7175 17.4715 47.7544C17.4933 47.7914 17.5218 47.8234 17.557 47.8503C17.5939 47.8755 17.635 47.8965 17.6803 47.9133C17.7272 47.9301 17.7758 47.9469 17.8261 47.9637C17.8881 47.9839 17.9502 48.0057 18.0122 48.0293C18.0759 48.0528 18.1329 48.0839 18.1832 48.1226C18.2335 48.1595 18.2746 48.2074 18.3064 48.2663C18.3383 48.3234 18.3542 48.3965 18.3542 48.4856C18.3542 48.5747 18.3366 48.6521 18.3014 48.7176C18.2679 48.7815 18.2234 48.8344 18.1681 48.8764C18.1145 48.9185 18.0524 48.9496 17.982 48.9697C17.9133 48.9899 17.8437 49 17.7733 49C17.7197 49 17.666 48.9941 17.6124 48.9823C17.5587 48.9723 17.5076 48.9563 17.459 48.9344C17.4104 48.9126 17.3651 48.8849 17.3232 48.8512C17.2813 48.8176 17.2444 48.779 17.2125 48.7353L17.3684 48.6193C17.407 48.6831 17.4606 48.7369 17.5294 48.7806C17.5998 48.8227 17.6819 48.8437 17.7758 48.8437C17.8211 48.8437 17.8672 48.8369 17.9141 48.8235C17.9611 48.8084 18.003 48.7865 18.0399 48.7579C18.0784 48.7277 18.1094 48.6915 18.1329 48.6495C18.1581 48.6058 18.1706 48.5554 18.1706 48.4982C18.1706 48.4361 18.1581 48.3848 18.1329 48.3444C18.1094 48.3024 18.0776 48.268 18.0374 48.2411C17.9971 48.2125 17.951 48.189 17.899 48.1705C17.8471 48.152 17.7926 48.1335 17.7356 48.115C17.6769 48.0965 17.6191 48.0755 17.5621 48.052C17.5051 48.0284 17.4539 47.9982 17.4087 47.9612C17.3634 47.9225 17.3265 47.8755 17.298 47.82C17.2712 47.7645 17.2578 47.6964 17.2578 47.6158C17.2578 47.53 17.2746 47.4561 17.3081 47.3939C17.3433 47.3317 17.3886 47.2804 17.4439 47.2401C17.4992 47.1997 17.5604 47.1703 17.6275 47.1518C17.6945 47.1334 17.7607 47.1241 17.8261 47.1241C17.9468 47.1241 18.0499 47.146 18.1354 47.1897C18.2209 47.2317 18.2855 47.2821 18.3291 47.3409L18.1857 47.4569ZM18.9237 48.9546H18.7426V47.1695H18.9237V48.9546ZM20.6632 48.6899H20.6582L19.6222 47.1695H19.3958V48.9546H19.5769V47.4191H19.5819L20.618 48.9546H20.8443V47.1695H20.6632V48.6899ZM22.815 48.6672C22.7848 48.7126 22.7479 48.7554 22.7043 48.7958C22.6624 48.8361 22.613 48.8714 22.556 48.9017C22.5007 48.9319 22.4386 48.9555 22.3699 48.9723C22.3028 48.9908 22.2291 49 22.1486 49C22.0145 49 21.8904 48.9765 21.7764 48.9294C21.6624 48.8823 21.5644 48.8176 21.4822 48.7353C21.4001 48.6512 21.3355 48.552 21.2886 48.4377C21.2433 48.3234 21.2207 48.1982 21.2207 48.062C21.2207 47.9259 21.2442 47.8007 21.2911 47.6864C21.338 47.5721 21.4026 47.4737 21.4847 47.3914C21.5685 47.3073 21.6666 47.2418 21.7789 47.1947C21.8929 47.1476 22.0162 47.1241 22.1486 47.1241C22.214 47.1241 22.2777 47.1308 22.3397 47.1443C22.4034 47.1577 22.4629 47.1771 22.5183 47.2023C22.5736 47.2258 22.6239 47.2552 22.6691 47.2905C22.7144 47.3241 22.7521 47.3628 22.7823 47.4065L22.6314 47.5174C22.613 47.4889 22.5878 47.4603 22.556 47.4317C22.5258 47.4031 22.4898 47.3779 22.4479 47.3561C22.4059 47.3342 22.3598 47.3166 22.3095 47.3031C22.2609 47.2897 22.2081 47.2829 22.1511 47.2829C22.0354 47.2829 21.9315 47.304 21.8393 47.346C21.7488 47.388 21.6716 47.4452 21.6079 47.5174C21.5442 47.588 21.4956 47.6704 21.4621 47.7645C21.4286 47.8587 21.4118 47.9578 21.4118 48.062C21.4118 48.1663 21.4286 48.2654 21.4621 48.3596C21.4973 48.4537 21.5468 48.5369 21.6105 48.6092C21.6742 48.6798 21.7513 48.7361 21.8418 48.7781C21.934 48.8201 22.0371 48.8412 22.1511 48.8412C22.2534 48.8412 22.3506 48.8201 22.4428 48.7781C22.535 48.7361 22.6121 48.6689 22.6742 48.5764L22.815 48.6672ZM24.2603 48.7932H23.3072V48.1049H24.1697V47.9461H23.3072V47.3309H24.2301V47.1695H23.1261V48.9546H24.2603V48.7932ZM26.274 48.9546H25.1349V48.7655L25.8641 48.0267C25.8909 47.9999 25.9169 47.9713 25.9421 47.941C25.9689 47.9091 25.9924 47.8763 26.0125 47.8427C26.0326 47.8091 26.0485 47.7738 26.0603 47.7368C26.072 47.6981 26.0779 47.6586 26.0779 47.6183C26.0779 47.5662 26.0687 47.5191 26.0502 47.4771C26.0318 47.4351 26.0058 47.3998 25.9723 47.3712C25.9404 47.3409 25.9027 47.3182 25.8591 47.3031C25.8172 47.2863 25.7728 47.2779 25.7258 47.2779C25.6303 47.2779 25.5498 47.3082 25.4844 47.3687C25.419 47.4275 25.3771 47.5032 25.3587 47.5956L25.1801 47.5603C25.1919 47.4981 25.2137 47.4401 25.2455 47.3863C25.279 47.3325 25.3193 47.2863 25.3662 47.2477C25.4148 47.209 25.4693 47.1787 25.5297 47.1569C25.59 47.135 25.6554 47.1241 25.7258 47.1241C25.7979 47.1241 25.8658 47.135 25.9295 47.1569C25.9949 47.1771 26.0519 47.2081 26.1005 47.2502C26.1491 47.2905 26.1877 47.3418 26.2162 47.404C26.2464 47.4645 26.2614 47.5351 26.2614 47.6158C26.2614 47.6729 26.2531 47.7259 26.2363 47.7746C26.2212 47.8234 26.2003 47.8696 26.1734 47.9133C26.1483 47.957 26.1181 47.999 26.0829 48.0394C26.0477 48.078 26.0108 48.1167 25.9723 48.1553L25.331 48.7932H26.274V48.9546ZM27.4712 47.2073C27.3974 47.1518 27.3052 47.1241 27.1946 47.1241C27.0823 47.1241 26.9884 47.1518 26.9129 47.2073C26.8392 47.2611 26.7797 47.3325 26.7344 47.4216C26.6891 47.509 26.6573 47.609 26.6388 47.7217C26.6204 47.8343 26.6112 47.9486 26.6112 48.0646C26.6112 48.1805 26.6204 48.2949 26.6388 48.4075C26.6573 48.5184 26.6891 48.6184 26.7344 48.7075C26.7797 48.7949 26.8392 48.8655 26.9129 48.9193C26.9884 48.9731 27.0823 49 27.1946 49C27.3052 49 27.3974 48.9731 27.4712 48.9193C27.5466 48.8655 27.607 48.7949 27.6523 48.7075C27.6975 48.6184 27.7294 48.5184 27.7478 48.4075C27.7679 48.2949 27.778 48.1805 27.778 48.0646C27.778 47.9486 27.7679 47.8343 27.7478 47.7217C27.7294 47.609 27.6975 47.509 27.6523 47.4216C27.607 47.3325 27.5466 47.2611 27.4712 47.2073ZM26.9984 47.351C27.0504 47.3023 27.1158 47.2779 27.1946 47.2779C27.2717 47.2779 27.3363 47.3023 27.3882 47.351C27.4402 47.3998 27.4813 47.462 27.5114 47.5376C27.5416 47.6132 27.5626 47.6981 27.5743 47.7923C27.5877 47.8847 27.5944 47.9755 27.5944 48.0646C27.5944 48.1537 27.5877 48.2444 27.5743 48.3369C27.5626 48.4293 27.5416 48.5134 27.5114 48.589C27.4813 48.663 27.4402 48.7243 27.3882 48.7731C27.3363 48.8201 27.2717 48.8437 27.1946 48.8437C27.1158 48.8437 27.0504 48.8201 26.9984 48.7731C26.9465 48.7243 26.9054 48.663 26.8752 48.589C26.8451 48.5134 26.8241 48.4293 26.8124 48.3369C26.8006 48.2444 26.7948 48.1537 26.7948 48.0646C26.7948 47.9755 26.8006 47.8847 26.8124 47.7923C26.8241 47.6981 26.8451 47.6132 26.8752 47.5376C26.9054 47.462 26.9465 47.3998 26.9984 47.351ZM28.8243 48.9546H28.6433V47.3939L28.3214 47.6687L28.2107 47.5426L28.6634 47.1695H28.8243V48.9546ZM30.3358 48.1705L30.3409 48.1755L29.8404 48.9546H30.0492L30.5345 48.1705C30.5781 48.0982 30.6158 48.0225 30.6477 47.9435C30.6795 47.8645 30.6954 47.7788 30.6954 47.6864C30.6954 47.604 30.6812 47.5284 30.6527 47.4594C30.6242 47.3888 30.584 47.3292 30.532 47.2804C30.48 47.2317 30.4188 47.1939 30.3484 47.167C30.278 47.1384 30.2009 47.1241 30.1171 47.1241C30.0332 47.1241 29.9561 47.1384 29.8857 47.167C29.8153 47.1939 29.7541 47.2317 29.7021 47.2804C29.6502 47.3292 29.6099 47.3888 29.5814 47.4594C29.5529 47.5284 29.5387 47.604 29.5387 47.6864C29.5387 47.767 29.5521 47.8418 29.5789 47.9108C29.6074 47.978 29.646 48.036 29.6946 48.0847C29.7432 48.1318 29.8002 48.1688 29.8656 48.1957C29.9326 48.2226 30.0047 48.236 30.0819 48.236C30.1271 48.236 30.1741 48.2301 30.2227 48.2184C30.2713 48.2066 30.309 48.1906 30.3358 48.1705ZM30.4842 47.525C30.5043 47.5754 30.5144 47.6292 30.5144 47.6864C30.5144 47.7435 30.5052 47.7973 30.4867 47.8477C30.4683 47.8965 30.4415 47.9393 30.4062 47.9763C30.3727 48.0116 30.3308 48.0394 30.2805 48.0595C30.2319 48.0797 30.1774 48.0898 30.1171 48.0898C30.0567 48.0898 30.0014 48.0797 29.9511 48.0595C29.9025 48.0394 29.8606 48.0116 29.8254 47.9763C29.7918 47.9393 29.7658 47.8965 29.7474 47.8477C29.729 47.7973 29.7197 47.7435 29.7197 47.6864C29.7197 47.6292 29.729 47.5754 29.7474 47.525C29.7675 47.4746 29.7952 47.4317 29.8304 47.3964C29.8656 47.3594 29.9075 47.3309 29.9561 47.3107C30.0047 47.2888 30.0584 47.2779 30.1171 47.2779C30.1757 47.2779 30.2294 47.2888 30.278 47.3107C30.3266 47.3309 30.3685 47.3594 30.4037 47.3964C30.4389 47.4317 30.4658 47.4746 30.4842 47.525Z" fill="black"/>
<path d="M67.9981 18.3314H60.38V25.7442H59V9.87209H69.1201V11.0167H60.38V17.1868H67.9981V18.3314Z" fill="black"/>
<path d="M78.0285 19.1381H73.2826V25.7442H71.8913V9.87209H77.1982C78.941 9.87209 80.3023 10.2827 81.2821 11.1039C82.262 11.9251 82.7519 13.0734 82.7519 14.5487C82.7519 15.5661 82.4452 16.4637 81.8319 17.2413C81.2186 18.0189 80.3958 18.5567 79.3636 18.8547L83.4475 25.6025V25.7442H81.9778L78.0285 19.1381ZM73.2826 17.9935H77.5124C78.6717 17.9935 79.6029 17.6737 80.306 17.0342C81.0091 16.3946 81.3607 15.5661 81.3607 14.5487C81.3607 13.4295 80.9942 12.561 80.2612 11.9433C79.5281 11.3256 78.4997 11.0167 77.1758 11.0167H73.2826V17.9935Z" fill="black"/>
<path d="M95.3291 21.2965H87.9129L86.23 25.7442H84.7827L90.9647 9.87209H92.2774L98.4594 25.7442H97.0232L95.3291 21.2965ZM88.3393 20.1519H94.8915L91.6154 11.5073L88.3393 20.1519Z" fill="black"/>
<path d="M113.034 25.7442H111.654L102.263 12.1613V25.7442H100.872V9.87209H102.263L111.665 23.4659V9.87209H113.034V25.7442Z" fill="black"/>
<path d="M128.752 20.7951C128.565 22.4666 127.948 23.7456 126.901 24.6323C125.861 25.5189 124.474 25.9622 122.739 25.9622C121.527 25.9622 120.454 25.6679 119.519 25.0792C118.591 24.4906 117.873 23.6584 117.364 22.5829C116.856 21.5 116.598 20.2645 116.59 18.8765V16.8161C116.59 15.4063 116.845 14.1563 117.353 13.0661C117.862 11.976 118.591 11.1366 119.541 10.548C120.498 9.95204 121.598 9.65407 122.84 9.65407C124.59 9.65407 125.97 10.1156 126.98 11.0385C127.997 11.9542 128.588 13.2224 128.752 14.843H127.361C127.017 12.1468 125.51 10.7987 122.84 10.7987C121.359 10.7987 120.177 11.3365 119.294 12.4121C118.419 13.4876 117.981 14.9738 117.981 16.8706V18.8111C117.981 20.6424 118.408 22.1032 119.261 23.1933C120.121 24.2834 121.28 24.8285 122.739 24.8285C124.182 24.8285 125.27 24.4942 126.003 23.8256C126.736 23.1497 127.189 22.1395 127.361 20.7951H128.752Z" fill="black"/>
<path d="M141.128 18.1352H133.487V24.6105H142.272V25.7442H132.107V9.87209H142.216V11.0167H133.487V17.0015H141.128V18.1352Z" fill="black"/>
<path d="M150.776 25.7442V9.87209H155.343C156.682 9.87209 157.882 10.1701 158.944 10.766C160.006 11.3547 160.833 12.2013 161.424 13.306C162.022 14.4106 162.321 15.6679 162.321 17.0778V18.5385C162.321 19.9557 162.026 21.2129 161.435 22.3103C160.844 23.4077 160.01 24.2544 158.933 24.8503C157.863 25.4462 156.633 25.7442 155.242 25.7442H150.776ZM152.156 11.0167V24.6105H155.253C156.973 24.6105 158.353 24.0581 159.393 22.9535C160.433 21.8416 160.953 20.3408 160.953 18.4513V17.056C160.953 15.2318 160.44 13.7711 159.415 12.6737C158.391 11.5763 157.041 11.024 155.365 11.0167H152.156Z" fill="black"/>
<path d="M165.261 13.7638L164.464 13.1969C165.137 12.3176 165.485 11.3946 165.508 10.4281V9H166.832V10.101C166.832 11.6199 166.308 12.8408 165.261 13.7638Z" fill="black"/>
<path d="M181.989 18.6693C181.989 20.1301 181.728 21.4128 181.204 22.5174C180.688 23.6221 179.947 24.4724 178.982 25.0683C178.018 25.6643 176.903 25.9622 175.639 25.9622C173.732 25.9622 172.191 25.3009 171.017 23.9782C169.842 22.6483 169.255 20.8568 169.255 18.6039V16.9688C169.255 15.5225 169.517 14.2435 170.04 13.1315C170.571 12.0124 171.319 11.1548 172.284 10.5589C173.249 9.95567 174.36 9.65407 175.617 9.65407C176.873 9.65407 177.98 9.9484 178.938 10.5371C179.902 11.1257 180.647 11.9579 181.17 13.0334C181.694 14.109 181.967 15.3554 181.989 16.7725V18.6693ZM180.609 16.947C180.609 15.0356 180.164 13.5385 179.274 12.4557C178.384 11.3728 177.165 10.8314 175.617 10.8314C174.098 10.8314 172.886 11.3765 171.981 12.4666C171.084 13.5494 170.635 15.0647 170.635 17.0124V18.6693C170.635 20.5516 171.084 22.0451 171.981 23.1497C172.879 24.2471 174.098 24.7958 175.639 24.7958C177.202 24.7958 178.421 24.2544 179.297 23.1715C180.172 22.0814 180.609 20.5661 180.609 18.6257V16.947Z" fill="black"/>
<path d="M191.571 19.1381H186.825V25.7442H185.434V9.87209H190.741C192.483 9.87209 193.845 10.2827 194.825 11.1039C195.804 11.9251 196.294 13.0734 196.294 14.5487C196.294 15.5661 195.988 16.4637 195.374 17.2413C194.761 18.0189 193.938 18.5567 192.906 18.8547L196.99 25.6025V25.7442H195.52L191.571 19.1381ZM186.825 17.9935H191.055C192.214 17.9935 193.145 17.6737 193.848 17.0342C194.552 16.3946 194.903 15.5661 194.903 14.5487C194.903 13.4295 194.537 12.561 193.804 11.9433C193.071 11.3256 192.042 11.0167 190.718 11.0167H186.825V17.9935Z" fill="black"/>
<path d="M67.9981 18.3314H60.38V25.7442H59V9.87209H69.1201V11.0167H60.38V17.1868H67.9981V18.3314Z" stroke="black"/>
<path d="M78.0285 19.1381H73.2826V25.7442H71.8913V9.87209H77.1982C78.941 9.87209 80.3023 10.2827 81.2821 11.1039C82.262 11.9251 82.7519 13.0734 82.7519 14.5487C82.7519 15.5661 82.4452 16.4637 81.8319 17.2413C81.2186 18.0189 80.3958 18.5567 79.3636 18.8547L83.4475 25.6025V25.7442H81.9778L78.0285 19.1381ZM73.2826 17.9935H77.5124C78.6717 17.9935 79.6029 17.6737 80.306 17.0342C81.0091 16.3946 81.3607 15.5661 81.3607 14.5487C81.3607 13.4295 80.9942 12.561 80.2612 11.9433C79.5281 11.3256 78.4997 11.0167 77.1758 11.0167H73.2826V17.9935Z" stroke="black"/>
<path d="M95.3291 21.2965H87.9129L86.23 25.7442H84.7827L90.9647 9.87209H92.2774L98.4594 25.7442H97.0232L95.3291 21.2965ZM88.3393 20.1519H94.8915L91.6154 11.5073L88.3393 20.1519Z" stroke="black"/>
<path d="M113.034 25.7442H111.654L102.263 12.1613V25.7442H100.872V9.87209H102.263L111.665 23.4659V9.87209H113.034V25.7442Z" stroke="black"/>
<path d="M128.752 20.7951C128.565 22.4666 127.948 23.7456 126.901 24.6323C125.861 25.5189 124.474 25.9622 122.739 25.9622C121.527 25.9622 120.454 25.6679 119.519 25.0792C118.591 24.4906 117.873 23.6584 117.364 22.5829C116.856 21.5 116.598 20.2645 116.59 18.8765V16.8161C116.59 15.4063 116.845 14.1563 117.353 13.0661C117.862 11.976 118.591 11.1366 119.541 10.548C120.498 9.95204 121.598 9.65407 122.84 9.65407C124.59 9.65407 125.97 10.1156 126.98 11.0385C127.997 11.9542 128.588 13.2224 128.752 14.843H127.361C127.017 12.1468 125.51 10.7987 122.84 10.7987C121.359 10.7987 120.177 11.3365 119.294 12.4121C118.419 13.4876 117.981 14.9738 117.981 16.8706V18.8111C117.981 20.6424 118.408 22.1032 119.261 23.1933C120.121 24.2834 121.28 24.8285 122.739 24.8285C124.182 24.8285 125.27 24.4942 126.003 23.8256C126.736 23.1497 127.189 22.1395 127.361 20.7951H128.752Z" stroke="black"/>
<path d="M141.128 18.1352H133.487V24.6105H142.272V25.7442H132.107V9.87209H142.216V11.0167H133.487V17.0015H141.128V18.1352Z" stroke="black"/>
<path d="M150.776 25.7442V9.87209H155.343C156.682 9.87209 157.882 10.1701 158.944 10.766C160.006 11.3547 160.833 12.2013 161.424 13.306C162.022 14.4106 162.321 15.6679 162.321 17.0778V18.5385C162.321 19.9557 162.026 21.2129 161.435 22.3103C160.844 23.4077 160.01 24.2544 158.933 24.8503C157.863 25.4462 156.633 25.7442 155.242 25.7442H150.776ZM152.156 11.0167V24.6105H155.253C156.973 24.6105 158.353 24.0581 159.393 22.9535C160.433 21.8416 160.953 20.3408 160.953 18.4513V17.056C160.953 15.2318 160.44 13.7711 159.415 12.6737C158.391 11.5763 157.041 11.024 155.365 11.0167H152.156Z" stroke="black"/>
<path d="M165.261 13.7638L164.464 13.1969C165.137 12.3176 165.485 11.3946 165.508 10.4281V9H166.832V10.101C166.832 11.6199 166.308 12.8408 165.261 13.7638Z" stroke="black"/>
<path d="M181.989 18.6693C181.989 20.1301 181.728 21.4128 181.204 22.5174C180.688 23.6221 179.947 24.4724 178.982 25.0683C178.018 25.6643 176.903 25.9622 175.639 25.9622C173.732 25.9622 172.191 25.3009 171.017 23.9782C169.842 22.6483 169.255 20.8568 169.255 18.6039V16.9688C169.255 15.5225 169.517 14.2435 170.04 13.1315C170.571 12.0124 171.319 11.1548 172.284 10.5589C173.249 9.95567 174.36 9.65407 175.617 9.65407C176.873 9.65407 177.98 9.9484 178.938 10.5371C179.902 11.1257 180.647 11.9579 181.17 13.0334C181.694 14.109 181.967 15.3554 181.989 16.7725V18.6693ZM180.609 16.947C180.609 15.0356 180.164 13.5385 179.274 12.4557C178.384 11.3728 177.165 10.8314 175.617 10.8314C174.098 10.8314 172.886 11.3765 171.981 12.4666C171.084 13.5494 170.635 15.0647 170.635 17.0124V18.6693C170.635 20.5516 171.084 22.0451 171.981 23.1497C172.879 24.2471 174.098 24.7958 175.639 24.7958C177.202 24.7958 178.421 24.2544 179.297 23.1715C180.172 22.0814 180.609 20.5661 180.609 18.6257V16.947Z" stroke="black"/>
<path d="M191.571 19.1381H186.825V25.7442H185.434V9.87209H190.741C192.483 9.87209 193.845 10.2827 194.825 11.1039C195.804 11.9251 196.294 13.0734 196.294 14.5487C196.294 15.5661 195.988 16.4637 195.374 17.2413C194.761 18.0189 193.938 18.5567 192.906 18.8547L196.99 25.6025V25.7442H195.52L191.571 19.1381ZM186.825 17.9935H191.055C192.214 17.9935 193.145 17.6737 193.848 17.0342C194.552 16.3946 194.903 15.5661 194.903 14.5487C194.903 13.4295 194.537 12.561 193.804 11.9433C193.071 11.3256 192.042 11.0167 190.718 11.0167H186.825V17.9935Z" stroke="black"/>
<path d="M79.9159 37.4808C79.7235 37.7486 79.4213 37.9576 79.0094 38.1077C78.6005 38.2578 78.142 38.3328 77.6338 38.3328C77.1197 38.3328 76.6627 38.2122 76.2628 37.9708C75.8629 37.7295 75.5532 37.3881 75.3337 36.9466C75.1143 36.5051 75.003 35.9989 75 35.4279V34.6156C75 33.7238 75.23 33.0204 75.69 32.5053C76.15 31.9873 76.7679 31.7283 77.5436 31.7283C78.2201 31.7283 78.7643 31.8976 79.1763 32.236C79.5882 32.5716 79.8332 33.0351 79.9114 33.6267H79.3567C79.2755 33.1558 79.0785 32.7997 78.7658 32.5583C78.4562 32.314 78.0503 32.1919 77.5481 32.1919C76.9348 32.1919 76.4492 32.4053 76.0914 32.832C75.7336 33.2588 75.5547 33.8607 75.5547 34.6377V35.397C75.5547 35.8856 75.6389 36.3182 75.8073 36.6949C75.9787 37.0687 76.2222 37.3586 76.5379 37.5647C76.8566 37.7707 77.2219 37.8737 77.6338 37.8737C78.1119 37.8737 78.5223 37.8001 78.8651 37.653C79.0876 37.5558 79.2529 37.4425 79.3612 37.313V35.6531H77.5978V35.1939H79.9159V37.4808Z" fill="black"/>
<path d="M81.0659 35.7855C81.0659 35.3264 81.1561 34.9129 81.3365 34.545C81.52 34.1771 81.777 33.8916 82.1078 33.6885C82.4415 33.4825 82.8188 33.3795 83.2398 33.3795C83.8892 33.3795 84.4154 33.6031 84.8183 34.0505C85.2212 34.4949 85.4226 35.085 85.4226 35.8208V35.9312C85.4226 36.3933 85.3309 36.8097 85.1475 37.1806C84.9671 37.5485 84.7115 37.8325 84.3808 38.0326C84.0501 38.2328 83.6727 38.3328 83.2488 38.3328C82.6024 38.3328 82.0762 38.1106 81.6703 37.6662C81.2674 37.2188 81.0659 36.6273 81.0659 35.8915V35.7855ZM81.6071 35.9312C81.6071 36.5022 81.7575 36.9716 82.0581 37.3395C82.3618 37.7045 82.7587 37.8869 83.2488 37.8869C83.7359 37.8869 84.1297 37.7045 84.4304 37.3395C84.7341 36.9716 84.8859 36.4875 84.8859 35.887V35.7855C84.8859 35.4206 84.8168 35.0865 84.6785 34.7834C84.5401 34.4802 84.3462 34.2462 84.0967 34.0814C83.8471 33.9136 83.5615 33.8298 83.2398 33.8298C82.7587 33.8298 82.3663 34.0152 82.0627 34.386C81.759 34.7539 81.6071 35.2366 81.6071 35.8341V35.9312Z" fill="black"/>
<path d="M87.1454 38.2445H86.6042V31.4635H87.1454V38.2445Z" fill="black"/>
<path d="M88.3992 35.812C88.3992 35.0703 88.5676 34.4802 88.9043 34.0417C89.2441 33.6002 89.7041 33.3795 90.2844 33.3795C90.9428 33.3795 91.445 33.634 91.7907 34.1432V31.4635H92.3274V38.2445H91.8223L91.7997 37.6088C91.454 38.0915 90.9458 38.3328 90.2754 38.3328C89.7131 38.3328 89.2591 38.1121 88.9133 37.6706C88.5706 37.2262 88.3992 36.6273 88.3992 35.8738V35.812ZM88.9449 35.9047C88.9449 36.5139 89.0697 36.9952 89.3192 37.3483C89.5688 37.6986 89.9206 37.8737 90.3746 37.8737C91.0391 37.8737 91.5111 37.5867 91.7907 37.0128V34.7701C91.5111 34.1491 91.0421 33.8386 90.3836 33.8386C89.9296 33.8386 89.5763 34.0137 89.3237 34.364C89.0712 34.7112 88.9449 35.2248 88.9449 35.9047Z" fill="black"/>
<path d="M97.1125 34.7392C96.8509 34.4302 96.66 34.155 96.5397 33.9136C96.4225 33.6694 96.3639 33.428 96.3639 33.1896C96.3639 32.7393 96.5007 32.3832 96.7743 32.1213C97.0479 31.8593 97.4147 31.7283 97.8747 31.7283C98.2926 31.7283 98.6309 31.8475 98.8895 32.0859C99.148 32.3214 99.2773 32.6216 99.2773 32.9865C99.2773 33.4104 99.0278 33.8268 98.5287 34.2359L97.8071 34.7834L99.6111 36.8406C99.8847 36.408 100.021 35.918 100.021 35.3705H100.522C100.522 36.1004 100.33 36.717 99.9448 37.2203L100.842 38.2445H100.193L99.6246 37.6C99.3871 37.8295 99.1119 38.0091 98.7993 38.1386C98.4896 38.2681 98.1618 38.3328 97.8161 38.3328C97.1907 38.3328 96.6946 38.1768 96.3278 37.8649C95.961 37.5499 95.7776 37.1305 95.7776 36.6067C95.7776 36.2947 95.8708 36.0004 96.0572 35.7237C96.2466 35.4441 96.5773 35.1307 97.0494 34.7834L97.1125 34.7392ZM97.8161 37.8869C98.0897 37.8869 98.3543 37.831 98.6098 37.7192C98.8684 37.6044 99.0999 37.4425 99.3044 37.2336L97.4688 35.1498L97.4057 35.0836L97.1982 35.2381C96.6089 35.709 96.3142 36.1652 96.3142 36.6067C96.3142 36.9922 96.4495 37.3027 96.7201 37.5382C96.9907 37.7707 97.3561 37.8869 97.8161 37.8869ZM96.9051 33.172C96.9051 33.531 97.108 33.9549 97.5139 34.4434L98.1047 34.0019C98.2971 33.8666 98.455 33.7179 98.5783 33.5561C98.7015 33.3942 98.7632 33.2043 98.7632 32.9865C98.7632 32.757 98.682 32.5657 98.5196 32.4126C98.3573 32.2566 98.1408 32.1786 97.8702 32.1786C97.5755 32.1786 97.341 32.2714 97.1666 32.4568C96.9922 32.6422 96.9051 32.8806 96.9051 33.172Z" fill="black"/>
<path d="M104.049 38.2445V31.8166H105.884C106.423 31.8166 106.905 31.9373 107.332 32.1786C107.759 32.417 108.091 32.7599 108.329 33.2073C108.569 33.6546 108.69 34.1638 108.69 34.7348V35.3264C108.69 35.9003 108.571 36.4095 108.333 36.8539C108.096 37.2983 107.761 37.6412 107.328 37.8825C106.898 38.1239 106.403 38.2445 105.844 38.2445H104.049ZM104.604 32.2802V37.7854H105.848C106.54 37.7854 107.095 37.5617 107.513 37.1144C107.93 36.664 108.139 36.0563 108.139 35.2911V34.726C108.139 33.9872 107.933 33.3956 107.522 32.9512C107.11 32.5068 106.567 32.2831 105.893 32.2802H104.604Z" fill="black"/>
<path d="M110.579 38.2445H110.038V33.4678H110.579V38.2445ZM109.943 32.0859C109.943 31.9859 109.977 31.902 110.043 31.8343C110.109 31.7637 110.199 31.7283 110.313 31.7283C110.428 31.7283 110.518 31.7637 110.584 31.8343C110.653 31.902 110.688 31.9859 110.688 32.0859C110.688 32.186 110.653 32.2699 110.584 32.3376C110.518 32.4053 110.428 32.4391 110.313 32.4391C110.199 32.4391 110.109 32.4053 110.043 32.3376C109.977 32.2699 109.943 32.186 109.943 32.0859Z" fill="black"/>
<path d="M115.13 38.2445C115.076 38.0944 115.041 37.8722 115.026 37.5779C114.837 37.8192 114.595 38.0061 114.3 38.1386C114.008 38.2681 113.699 38.3328 113.371 38.3328C112.902 38.3328 112.522 38.2048 112.23 37.9487C111.941 37.6927 111.797 37.3689 111.797 36.9775C111.797 36.5125 111.994 36.1446 112.388 35.8738C112.785 35.603 113.336 35.4676 114.043 35.4676H115.022V34.9246C115.022 34.5832 114.913 34.3154 114.697 34.1211C114.484 33.9239 114.171 33.8254 113.759 33.8254C113.383 33.8254 113.072 33.9195 112.825 34.1079C112.579 34.2963 112.456 34.5229 112.456 34.7878L111.914 34.7834C111.914 34.4037 112.095 34.0755 112.456 33.7989C112.816 33.5193 113.26 33.3795 113.786 33.3795C114.33 33.3795 114.759 33.5134 115.071 33.7812C115.387 34.0461 115.549 34.4169 115.558 34.8937V37.1541C115.558 37.6162 115.608 37.962 115.707 38.1916V38.2445H115.13ZM113.434 37.8649C113.795 37.8649 114.117 37.7795 114.399 37.6088C114.685 37.4381 114.892 37.21 115.022 36.9245V35.8738H114.057C113.518 35.8797 113.097 35.9768 112.794 36.1652C112.49 36.3506 112.338 36.6067 112.338 36.9333C112.338 37.2012 112.439 37.4234 112.64 37.6C112.845 37.7766 113.109 37.8649 113.434 37.8649Z" fill="black"/>
<path d="M117.493 33.4678L117.511 34.2448C117.692 33.9563 117.917 33.74 118.188 33.5958C118.458 33.4516 118.759 33.3795 119.09 33.3795C119.859 33.3795 120.348 33.6885 120.555 34.3066C120.73 34.0093 120.963 33.7812 121.255 33.6223C121.546 33.4604 121.868 33.3795 122.22 33.3795C123.266 33.3795 123.8 33.9387 123.821 35.0571V38.2445H123.28V35.0968C123.277 34.67 123.182 34.3537 122.995 34.1476C122.812 33.9416 122.511 33.8386 122.093 33.8386C121.706 33.8445 121.378 33.9681 121.11 34.2094C120.843 34.4478 120.694 34.7392 120.664 35.0836V38.2445H120.123V35.0571C120.12 34.648 120.02 34.3434 119.825 34.1432C119.632 33.9401 119.335 33.8386 118.932 33.8386C118.592 33.8386 118.3 33.9343 118.057 34.1256C117.813 34.3139 117.633 34.595 117.516 34.9688V38.2445H116.975V33.4678H117.493Z" fill="black"/>
<path d="M124.894 35.7855C124.894 35.3264 124.984 34.9129 125.165 34.545C125.348 34.1771 125.605 33.8916 125.936 33.6885C126.27 33.4825 126.647 33.3795 127.068 33.3795C127.717 33.3795 128.244 33.6031 128.646 34.0505C129.049 34.4949 129.251 35.085 129.251 35.8208V35.9312C129.251 36.3933 129.159 36.8097 128.976 37.1806C128.795 37.5485 128.54 37.8325 128.209 38.0326C127.878 38.2328 127.501 38.3328 127.077 38.3328C126.431 38.3328 125.904 38.1106 125.498 37.6662C125.096 37.2188 124.894 36.6273 124.894 35.8915V35.7855ZM125.435 35.9312C125.435 36.5022 125.586 36.9716 125.886 37.3395C126.19 37.7045 126.587 37.8869 127.077 37.8869C127.564 37.8869 127.958 37.7045 128.259 37.3395C128.562 36.9716 128.714 36.4875 128.714 35.887V35.7855C128.714 35.4206 128.645 35.0865 128.507 34.7834C128.368 34.4802 128.174 34.2462 127.925 34.0814C127.675 33.9136 127.39 33.8298 127.068 33.8298C126.587 33.8298 126.194 34.0152 125.891 34.386C125.587 34.7539 125.435 35.2366 125.435 35.8341V35.9312Z" fill="black"/>
<path d="M130.883 33.4678L130.901 34.2845C131.085 33.9902 131.313 33.7665 131.587 33.6134C131.861 33.4575 132.163 33.3795 132.493 33.3795C133.017 33.3795 133.406 33.5237 133.662 33.8121C133.917 34.1005 134.046 34.5332 134.049 35.11V38.2445H133.513V35.1056C133.51 34.6789 133.416 34.361 133.233 34.152C133.053 33.9431 132.763 33.8386 132.363 33.8386C132.029 33.8386 131.733 33.9416 131.474 34.1476C131.219 34.3507 131.029 34.6259 130.906 34.9732V38.2445H130.369V33.4678H130.883Z" fill="black"/>
<path d="M135.231 35.812C135.231 35.0703 135.399 34.4802 135.736 34.0417C136.076 33.6002 136.536 33.3795 137.116 33.3795C137.775 33.3795 138.277 33.634 138.623 34.1432V31.4635H139.159V38.2445H138.654L138.632 37.6088C138.286 38.0915 137.778 38.3328 137.107 38.3328C136.545 38.3328 136.091 38.1121 135.745 37.6706C135.402 37.2262 135.231 36.6273 135.231 35.8738V35.812ZM135.777 35.9047C135.777 36.5139 135.901 36.9952 136.151 37.3483C136.401 37.6986 136.752 37.8737 137.206 37.8737C137.871 37.8737 138.343 37.5867 138.623 37.0128V34.7701C138.343 34.1491 137.874 33.8386 137.215 33.8386C136.761 33.8386 136.408 34.0137 136.156 34.364C135.903 34.7112 135.777 35.2248 135.777 35.9047Z" fill="black"/>
<path d="M147.602 36.2402C147.527 36.9172 147.279 37.4352 146.858 37.7942C146.44 38.1533 145.882 38.3328 145.185 38.3328C144.697 38.3328 144.266 38.2136 143.89 37.9752C143.517 37.7368 143.229 37.3998 143.024 36.9643C142.82 36.5257 142.716 36.0254 142.713 35.4632V34.6288C142.713 34.0579 142.815 33.5516 143.02 33.1102C143.224 32.6687 143.517 32.3287 143.899 32.0904C144.284 31.849 144.726 31.7283 145.225 31.7283C145.929 31.7283 146.483 31.9152 146.889 32.289C147.298 32.6599 147.536 33.1734 147.602 33.8298H147.043C146.904 32.7379 146.299 32.1919 145.225 32.1919C144.63 32.1919 144.155 32.4097 143.8 32.8453C143.448 33.2809 143.272 33.8827 143.272 34.6509V35.4367C143.272 36.1784 143.444 36.77 143.786 37.2115C144.132 37.653 144.598 37.8737 145.185 37.8737C145.765 37.8737 146.202 37.7383 146.497 37.4675C146.792 37.1938 146.974 36.7847 147.043 36.2402H147.602Z" fill="black"/>
<path d="M148.526 35.7855C148.526 35.3264 148.617 34.9129 148.797 34.545C148.98 34.1771 149.238 33.8916 149.568 33.6885C149.902 33.4825 150.279 33.3795 150.7 33.3795C151.35 33.3795 151.876 33.6031 152.279 34.0505C152.682 34.4949 152.883 35.085 152.883 35.8208V35.9312C152.883 36.3933 152.791 36.8097 152.608 37.1806C152.428 37.5485 152.172 37.8325 151.841 38.0326C151.511 38.2328 151.133 38.3328 150.709 38.3328C150.063 38.3328 149.537 38.1106 149.131 37.6662C148.728 37.2188 148.526 36.6273 148.526 35.8915V35.7855ZM149.068 35.9312C149.068 36.5022 149.218 36.9716 149.519 37.3395C149.822 37.7045 150.219 37.8869 150.709 37.8869C151.196 37.8869 151.59 37.7045 151.891 37.3395C152.195 36.9716 152.346 36.4875 152.346 35.887V35.7855C152.346 35.4206 152.277 35.0865 152.139 34.7834C152.001 34.4802 151.807 34.2462 151.557 34.0814C151.308 33.9136 151.022 33.8298 150.7 33.8298C150.219 33.8298 149.827 34.0152 149.523 34.386C149.22 34.7539 149.068 35.2366 149.068 35.8341V35.9312Z" fill="black"/>
<path d="M154.493 33.4678L154.511 34.2448C154.692 33.9563 154.917 33.74 155.188 33.5958C155.458 33.4516 155.759 33.3795 156.09 33.3795C156.859 33.3795 157.348 33.6885 157.555 34.3066C157.73 34.0093 157.963 33.7812 158.255 33.6223C158.546 33.4604 158.868 33.3795 159.22 33.3795C160.266 33.3795 160.8 33.9387 160.821 35.0571V38.2445H160.28V35.0968C160.277 34.67 160.182 34.3537 159.995 34.1476C159.812 33.9416 159.511 33.8386 159.093 33.8386C158.706 33.8445 158.378 33.9681 158.11 34.2094C157.843 34.4478 157.694 34.7392 157.664 35.0836V38.2445H157.123V35.0571C157.12 34.648 157.02 34.3434 156.825 34.1432C156.632 33.9401 156.335 33.8386 155.932 33.8386C155.592 33.8386 155.3 33.9343 155.057 34.1256C154.813 34.3139 154.633 34.595 154.516 34.9688V38.2445H153.975V33.4678H154.493Z" fill="black"/>
<path d="M166.115 35.9047C166.115 36.6493 165.947 37.2409 165.61 37.6794C165.274 38.115 164.823 38.3328 164.257 38.3328C163.59 38.3328 163.079 38.1033 162.724 37.6441V40.0811H162.187V33.4678H162.688L162.715 34.1432C163.067 33.634 163.576 33.3795 164.244 33.3795C164.827 33.3795 165.284 33.5958 165.615 34.0284C165.949 34.4611 166.115 35.0615 166.115 35.8297V35.9047ZM165.574 35.812C165.574 35.2028 165.446 34.7216 165.191 34.3684C164.935 34.0152 164.579 33.8386 164.122 33.8386C163.791 33.8386 163.507 33.9166 163.27 34.0726C163.032 34.2286 162.85 34.4552 162.724 34.7525V37.0437C162.853 37.3174 163.038 37.5264 163.279 37.6706C163.519 37.8148 163.803 37.8869 164.131 37.8869C164.585 37.8869 164.938 37.7103 165.191 37.3572C165.446 37.001 165.574 36.486 165.574 35.812Z" fill="black"/>
<path d="M170.395 38.2445C170.341 38.0944 170.307 37.8722 170.292 37.5779C170.102 37.8192 169.86 38.0061 169.566 38.1386C169.274 38.2681 168.964 38.3328 168.637 38.3328C168.168 38.3328 167.787 38.2048 167.496 37.9487C167.207 37.6927 167.063 37.3689 167.063 36.9775C167.063 36.5125 167.259 36.1446 167.653 35.8738C168.05 35.603 168.602 35.4676 169.309 35.4676H170.287V34.9246C170.287 34.5832 170.179 34.3154 169.962 34.1211C169.749 33.9239 169.436 33.8254 169.024 33.8254C168.649 33.8254 168.337 33.9195 168.091 34.1079C167.844 34.2963 167.721 34.5229 167.721 34.7878L167.18 34.7834C167.18 34.4037 167.36 34.0755 167.721 33.7989C168.082 33.5193 168.525 33.3795 169.051 33.3795C169.596 33.3795 170.024 33.5134 170.337 33.7812C170.653 34.0461 170.815 34.4169 170.824 34.8937V37.1541C170.824 37.6162 170.874 37.962 170.973 38.1916V38.2445H170.395ZM168.7 37.8649C169.06 37.8649 169.382 37.7795 169.665 37.6088C169.95 37.4381 170.158 37.21 170.287 36.9245V35.8738H169.322C168.784 35.8797 168.363 35.9768 168.059 36.1652C167.756 36.3506 167.604 36.6067 167.604 36.9333C167.604 37.2012 167.704 37.4234 167.906 37.6C168.11 37.7766 168.375 37.8649 168.7 37.8649Z" fill="black"/>
<path d="M172.781 33.4678L172.799 34.2845C172.983 33.9902 173.211 33.7665 173.485 33.6134C173.758 33.4575 174.061 33.3795 174.391 33.3795C174.914 33.3795 175.304 33.5237 175.559 33.8121C175.815 34.1005 175.944 34.5332 175.947 35.11V38.2445H175.411V35.1056C175.408 34.6789 175.314 34.361 175.131 34.152C174.951 33.9431 174.66 33.8386 174.261 33.8386C173.927 33.8386 173.631 33.9416 173.372 34.1476C173.116 34.3507 172.927 34.6259 172.804 34.9732V38.2445H172.267V33.4678H172.781Z" fill="black"/>
<path d="M178.892 37.4852L180.317 33.4678H180.899L178.816 39.0568L178.707 39.3041C178.44 39.8839 178.026 40.1738 177.467 40.1738C177.338 40.1738 177.2 40.1532 177.052 40.112L177.048 39.6749L177.327 39.7014C177.592 39.7014 177.805 39.6367 177.968 39.5072C178.133 39.3806 178.273 39.1613 178.387 38.8494L178.626 38.2048L176.786 33.4678H177.377L178.892 37.4852Z" fill="black"/>
</svg>
